<?xml version="1.0" encoding="UTF-8"?>
<svg version="1.1" xmlns="http://www.w3.org/2000/svg" width="280" height="280">
<path d="M0 0 C0.79470703 -0.00386719 1.58941406 -0.00773437 2.40820312 -0.01171875 C26.53716943 0.02754727 47.30259715 9.15659188 66.5625 23.125 C67.5525 23.785 68.5425 24.445 69.5625 25.125 C69.5625 25.785 69.5625 26.445 69.5625 27.125 C70.119375 27.351875 70.67625 27.57875 71.25 27.8125 C74.22409588 29.50050036 76.28258865 31.59176517 78.5625 34.125 C78.5625 34.785 78.5625 35.445 78.5625 36.125 C79.2225 36.125 79.8825 36.125 80.5625 36.125 C82.1132064 38.11577173 83.53704026 40.09463021 84.9375 42.1875 C85.34524658 42.78949219 85.75299316 43.39148438 86.1730957 44.01171875 C88.84046594 47.97816429 91.36504505 51.88163872 93.5625 56.125 C94.02140625 56.99640625 94.4803125 57.8678125 94.953125 58.765625 C98.21812387 65.32860252 100.50429009 71.8018756 102.375 78.875 C102.58181396 79.65456055 102.78862793 80.43412109 103.00170898 81.23730469 C105.1013973 89.59365785 105.71182247 97.85160927 105.72363281 106.44921875 C105.72859772 107.33340485 105.73356262 108.21759094 105.73867798 109.12857056 C105.75315956 112.02322189 105.76007596 114.91781855 105.765625 117.8125 C105.76986607 119.30576309 105.76986607 119.30576309 105.77419281 120.82919312 C105.78912406 126.09153504 105.79839335 131.35384995 105.80273438 136.61621094 C105.80822785 142.03298211 105.83229183 147.44950307 105.86070633 152.86619568 C105.87937521 157.05107337 105.88454045 161.23589107 105.88607025 165.42080688 C105.88908478 167.41738257 105.89707247 169.4139575 105.91025543 171.41049194 C105.92741453 174.20744717 105.92541237 177.00379396 105.91894531 179.80078125 C105.93276749 181.02143784 105.93276749 181.02143784 105.9468689 182.26675415 C105.88778476 190.47261161 103.92273468 197.5416907 98.23828125 203.62109375 C93.17478544 208.16525665 88.03629645 209.78443172 81.375 210.4375 C75.01106232 209.91586576 69.61757177 207.82266798 64.6875 203.75 C58.5625 196.18382353 58.5625 196.18382353 58.5625 193.125 C58.06363281 193.41632813 57.56476563 193.70765625 57.05078125 194.0078125 C47.28040962 199.58587027 37.68622047 204.05710052 26.8125 206.9375 C26.03277832 207.14439453 25.25305664 207.35128906 24.44970703 207.56445312 C10.14999031 211.15676936 -5.06363885 211.388712 -19.4375 208.125 C-20.1480957 207.96370605 -20.85869141 207.80241211 -21.59082031 207.63623047 C-32.15435476 205.18484203 -41.78770049 202.16645719 -51.4375 197.125 C-51.4375 196.465 -51.4375 195.805 -51.4375 195.125 C-52.365625 194.83625 -53.29375 194.5475 -54.25 194.25 C-57.4375 193.125 -57.4375 193.125 -60.4375 191.125 C-60.4375 190.465 -60.4375 189.805 -60.4375 189.125 C-61.200625 188.83625 -61.96375 188.5475 -62.75 188.25 C-65.4375 187.125 -65.4375 187.125 -68.4375 185.125 C-68.4375 184.465 -68.4375 183.805 -68.4375 183.125 C-68.994375 182.898125 -69.55125 182.67125 -70.125 182.4375 C-73.09909588 180.74949964 -75.15758865 178.65823483 -77.4375 176.125 C-77.4375 175.465 -77.4375 174.805 -77.4375 174.125 C-78.0975 174.125 -78.7575 174.125 -79.4375 174.125 C-80.9882064 172.13422827 -82.41204026 170.15536979 -83.8125 168.0625 C-84.22024658 167.46050781 -84.62799316 166.85851562 -85.0480957 166.23828125 C-87.71546594 162.27183571 -90.24004505 158.36836128 -92.4375 154.125 C-92.89640625 153.24199219 -93.3553125 152.35898438 -93.828125 151.44921875 C-96.98041661 145.05707188 -99.32828511 138.72648591 -101.25 131.875 C-101.45681396 131.1430542 -101.66362793 130.4111084 -101.87670898 129.65698242 C-108.84167088 103.581595 -103.43034461 75.37704616 -90.4375 52.125 C-89.93734375 51.22394531 -89.4371875 50.32289062 -88.921875 49.39453125 C-74.36989274 24.91753196 -50.02955839 9.40966391 -22.9375 2.3125 C-15.2924098 0.45744135 -7.82902023 -0.03791293 0 0 Z M-42.8125 67.5625 C-53.7163086 80.5803123 -57.18684797 95.42799019 -56.4375 112.125 C-56.06078151 114.93369862 -55.36215755 117.45141875 -54.4375 120.125 C-54.18097656 120.96289062 -53.92445312 121.80078125 -53.66015625 122.6640625 C-48.28246836 139.05100842 -38.41833154 149.10266879 -23.4375 157.125 C-8.1452503 163.8870113 6.60980813 163.41486759 22.125 157.875 C27.7039508 155.66422696 32.03511623 153.01750927 36.5625 149.125 C38.109375 147.949375 38.109375 147.949375 39.6875 146.75 C50.04378203 137.29426423 57.03215372 122.75659295 57.73046875 108.7578125 C57.76691516 102.21203731 57.75188034 96.31487112 55.5625 90.125 C55.24410156 89.14015625 54.92570312 88.1553125 54.59765625 87.140625 C49.52108305 72.57752613 40.54673259 61.3756034 26.75 54.3125 C2.4581513 42.58304453 -24.45868414 47.79153451 -42.8125 67.5625 Z " fill="#20B958" transform="translate(139.4375,34.875)"/>
<path d="M0 0 C0.33 0 0.66 0 1 0 C1.06964083 11.83983583 1.12288278 23.67962258 1.15543652 35.51962185 C1.17106402 41.01795649 1.19224905 46.51615055 1.22631836 52.0144043 C1.25901572 57.3247369 1.27687493 62.63493464 1.28463173 67.94536018 C1.29015662 69.96706323 1.30094529 71.98875926 1.31719017 74.01040459 C1.33910236 76.85141584 1.34196117 79.69187625 1.34057617 82.53295898 C1.351362 83.36086945 1.36214783 84.18877991 1.3732605 85.04177856 C1.32999264 93.29326064 -0.60503959 100.37955226 -6.32421875 106.49609375 C-11.38771456 111.04025665 -16.52620355 112.65943172 -23.1875 113.3125 C-29.55143768 112.79086576 -34.94492823 110.69766798 -39.875 106.625 C-46 99.05882353 -46 99.05882353 -46 96 C-46.49886719 96.29132813 -46.99773437 96.58265625 -47.51171875 96.8828125 C-64.15236435 106.38321699 -80.26121125 112.34445878 -99.5625 112.6875 C-100.54903564 112.7189209 -101.53557129 112.7503418 -102.55200195 112.78271484 C-109.93225393 112.72908564 -115.25532816 110.67755431 -121 106 C-126.41757591 99.24947421 -127.48691126 93.16789212 -127.3984375 84.5859375 C-126.67511596 78.07604364 -123.72466788 74.18714836 -118.703125 70.15625 C-113.46212943 66.52523346 -109.51448299 64.99970852 -103.09716797 64.50683594 C-89.85033942 63.41005255 -78.22499282 59.89574375 -68 51 C-66.700625 50.071875 -66.700625 50.071875 -65.375 49.125 C-54.85365797 39.71116766 -49.66154461 25.52690906 -47 12 C-45 15 -45 15 -43.625 17.875 C-40.84284225 23.22530336 -37.97762538 26.74856408 -32.47265625 29.26953125 C-25.87202494 31.21948078 -18.5703404 31.18303124 -12.375 28.0625 C-11.26125 27.381875 -10.1475 26.70125 -9 26 C-8.01 25.67 -7.02 25.34 -6 25 C-5.27095914 23.35965807 -4.61344757 21.68698082 -4 20 C-3.49855469 19.27941406 -2.99710937 18.55882812 -2.48046875 17.81640625 C-0.62761807 14.29159004 -0.4430152 11.08431086 -0.3125 7.1875 C-0.27833984 6.49462891 -0.24417969 5.80175781 -0.20898438 5.08789062 C-0.12713656 3.39247151 -0.06187635 1.69626542 0 0 Z " fill="#F5B722" transform="translate(244,132)"/>
<path d="M0 0 C21.91272716 -2.44987012 42.95889987 9.64079739 60 22 C60.99 22.66 61.98 23.32 63 24 C63 24.66 63 25.32 63 26 C63.556875 26.226875 64.11375 26.45375 64.6875 26.6875 C67.66159588 28.37550036 69.72008865 30.46676517 72 33 C72 33.66 72 34.32 72 35 C72.66 35 73.32 35 74 35 C75.5507064 36.99077173 76.97454026 38.96963021 78.375 41.0625 C78.78274658 41.66449219 79.19049316 42.26648438 79.6105957 42.88671875 C82.27796594 46.85316429 84.80254505 50.75663872 87 55 C87.68835938 56.30710937 87.68835938 56.30710937 88.390625 57.640625 C95.06901154 71.06485653 98.42083073 84.55829543 98.6875 99.5625 C98.7189209 100.54903564 98.7503418 101.53557129 98.78271484 102.55200195 C98.72908564 109.93225393 96.67755431 115.25532816 92 121 C84.51747175 127.00503813 77.43405089 127.76099106 68 127 C61.6930439 125.47229214 58.26638896 121.44366547 54.4453125 116.4140625 C51.69897411 111.82693513 50.83302592 107.48774098 50.41943359 102.18994141 C49.14725933 86.21627201 43.04816252 72.52408004 31.375 61.25 C20.84090088 52.65747994 8.17830033 49.13178388 -5 47 C-5 46.67 -5 46.34 -5 46 C-4.443125 45.92523438 -3.88625 45.85046875 -3.3125 45.7734375 C4.09046299 44.49792699 9.43894071 41.46982226 13.9375 35.375 C16.82359908 28.92371971 17.48562204 20.46456365 15.24609375 13.734375 C11.5526167 7.07163209 6.6979789 4.05635931 0 1 C0 0.67 0 0.34 0 0 Z " fill="#E23536" transform="translate(146,36)"/>
<path d="M0 0 C3.40867121 2.02372188 6.07482595 4.65028673 8.9375 7.37109375 C17.33425709 14.41134727 28.83540123 17.95627897 39.35546875 20.3984375 C37.68496754 21.51210497 36.00019679 22.60734273 34.26953125 23.625 C28.80811216 26.96149835 24.41315258 30.14624433 22.35546875 36.3984375 C21.309183 44.39505005 21.47345077 51.74267597 26.35546875 58.3984375 C30.40227503 63.42205909 34.79509535 66.07905072 41.14453125 66.87109375 C44.87906846 67.15666299 48.61165256 67.30207158 52.35546875 67.3984375 C52.35546875 67.7284375 52.35546875 68.0584375 52.35546875 68.3984375 C42.79693949 68.61677954 33.73190027 68.52743901 24.35546875 66.3984375 C23.64487305 66.23714355 22.93427734 66.07584961 22.20214844 65.90966797 C11.63861399 63.45827953 2.00526826 60.43989469 -7.64453125 55.3984375 C-7.64453125 54.7384375 -7.64453125 54.0784375 -7.64453125 53.3984375 C-8.57265625 53.1096875 -9.50078125 52.8209375 -10.45703125 52.5234375 C-13.64453125 51.3984375 -13.64453125 51.3984375 -16.64453125 49.3984375 C-16.64453125 48.7384375 -16.64453125 48.0784375 -16.64453125 47.3984375 C-17.40765625 47.1096875 -18.17078125 46.8209375 -18.95703125 46.5234375 C-21.64453125 45.3984375 -21.64453125 45.3984375 -24.64453125 43.3984375 C-24.64453125 42.7384375 -24.64453125 42.0784375 -24.64453125 41.3984375 C-25.20140625 41.1715625 -25.75828125 40.9446875 -26.33203125 40.7109375 C-31.41601119 37.82543537 -34.33584579 34.10652775 -36.140625 28.640625 C-38.07810325 20.01959775 -36.19373951 13.73209154 -31.76953125 6.2109375 C-23.8919835 -4.21522864 -11.46550781 -5.14033895 0 0 Z " fill="#7A8A9E" transform="translate(95.64453125,176.6015625)"/>
<path d="M0 0 C0.66 0 1.32 0 2 0 C3.5507064 1.99077173 4.97454026 3.96963021 6.375 6.0625 C6.98661987 6.96548828 6.98661987 6.96548828 7.6105957 7.88671875 C10.27796594 11.85316429 12.80254505 15.75663872 15 20 C15.68835938 21.30710937 15.68835938 21.30710937 16.390625 22.640625 C23.06901154 36.06485653 26.42083073 49.55829543 26.6875 64.5625 C26.7189209 65.54903564 26.7503418 66.53557129 26.78271484 67.55200195 C26.72908564 74.93225393 24.67755431 80.25532816 20 86 C12.51747175 92.00503813 5.43405089 92.76099106 -4 92 C-10.3069561 90.47229214 -13.73361104 86.44366547 -17.5546875 81.4140625 C-20.30112745 76.8267655 -21.1666262 72.48756675 -21.58081055 67.18969727 C-22.67909567 53.38109946 -27.30554009 41.93238302 -36 31 C-33 31 -33 31 -30.69921875 32.46875 C-25.77200179 35.26392952 -20.49145089 34.65769703 -15 34 C-7.83563004 31.97401013 -3.85815687 28.39342755 -0.05859375 22.0859375 C3.06324091 15.93442566 2.77418514 8.8548077 1 2.3125 C0.505 1.1678125 0.505 1.1678125 0 0 Z " fill="#8649E6" transform="translate(218,71)"/>
<path d="M0 0 C2.44265347 3.6639802 2.21466476 5.31490479 2.13525391 9.67456055 C2.12579239 10.347995 2.11633087 11.02142944 2.10658264 11.715271 C2.07292669 13.93936445 2.02480658 16.16289786 1.9765625 18.38671875 C1.95039307 19.92941325 1.92512624 21.4721233 1.90072632 23.0148468 C1.83409771 27.07402234 1.75520029 31.13287054 1.67376709 35.19177246 C1.59282504 39.33410077 1.52345863 43.47662102 1.453125 47.61914062 C1.31342767 55.74632676 1.16077173 63.87320358 1 72 C0.67 72 0.34 72 0 72 C-0.15379407 63.05542306 -0.30197537 54.11077599 -0.4429636 45.16598797 C-0.50860485 41.01270642 -0.57618946 36.85947533 -0.64819336 32.70629883 C-0.71759136 28.69932653 -0.78191327 24.69230214 -0.84269524 20.6851902 C-0.8667972 19.15533291 -0.89273761 17.62550347 -0.92053413 16.09570885 C-0.95911226 13.95537035 -0.99119158 11.81502675 -1.02172852 9.67456055 C-1.04171402 8.45544479 -1.06169952 7.23632904 -1.08229065 5.98027039 C-1 3 -1 3 0 0 Z " fill="#F4B01D" transform="translate(197,144)"/>
<path d="M0 0 C2.36511111 3.54766666 2.18013277 4.8072782 1.9765625 8.98046875 C1.925 10.14384766 1.8734375 11.30722656 1.8203125 12.50585938 C1.75585938 13.72080078 1.69140625 14.93574219 1.625 16.1875 C1.56828125 17.41404297 1.5115625 18.64058594 1.453125 19.90429688 C1.31153051 22.93677888 1.16010492 25.96844806 1 29 C0.67 29 0.34 29 0 29 C-0.19656362 24.72953289 -0.38070249 20.45861919 -0.5625 16.1875 C-0.61857422 14.97255859 -0.67464844 13.75761719 -0.73242188 12.50585938 C-0.78076172 11.34248047 -0.82910156 10.17910156 -0.87890625 8.98046875 C-0.9260376 7.90692139 -0.97316895 6.83337402 -1.02172852 5.72729492 C-1 3 -1 3 0 0 Z " fill="#EFA519" transform="translate(197,144)"/>
<path d="M0 0 C2 3 2 3 1.625 6.1875 C1.41875 7.115625 1.2125 8.04375 1 9 C0.34 9 -0.32 9 -1 9 C-0.67 6.03 -0.34 3.06 0 0 Z " fill="#CC851C" transform="translate(197,144)"/>
</svg>
