<?xml version="1.0" encoding="UTF-8"?>
<!DOCTYPE svg PUBLIC "-//W3C//DTD SVG 1.1//EN" "http://www.w3.org/Graphics/SVG/1.1/DTD/svg11.dtd">
<svg xmlns="http://www.w3.org/2000/svg" version="1.1" width="200px" height="200px" style="shape-rendering:geometricPrecision; text-rendering:geometricPrecision; image-rendering:optimizeQuality; fill-rule:evenodd; clip-rule:evenodd" xmlns:xlink="http://www.w3.org/1999/xlink">
<g><path style="opacity:0.482" fill="#326503" d="M 23.5,64.5 C 34.988,63.5051 46.6547,63.1717 58.5,63.5C 58.7845,65.4147 58.4511,67.0813 57.5,68.5C 57.5,67.1667 57.5,65.8333 57.5,64.5C 46.1667,64.5 34.8333,64.5 23.5,64.5 Z"/></g>
<g><path style="opacity:0.987" fill="#499106" d="M 23.5,64.5 C 34.8333,64.5 46.1667,64.5 57.5,64.5C 57.5,65.8333 57.5,67.1667 57.5,68.5C 55.4086,68.3184 53.4086,68.6518 51.5,69.5C 50.6671,84.8225 50.1671,100.156 50,115.5C 47.8807,128.929 39.8807,135.595 26,135.5C 21.6124,135.189 17.4458,134.189 13.5,132.5C 13.0269,131.094 12.0269,130.427 10.5,130.5C 3.88258,125.442 1.71591,118.775 4,110.5C 8.99342,102.938 14.9934,101.938 22,107.5C 26.4182,117.927 22.9182,122.594 11.5,121.5C 12.5359,127.127 16.0359,129.794 22,129.5C 27.2111,129.627 30.8778,127.293 33,122.5C 34.5932,105.545 34.9265,88.545 34,71.5C 33.5,70.3333 32.6667,69.5 31.5,69C 28.854,68.5026 26.1873,68.3359 23.5,68.5C 23.5,67.1667 23.5,65.8333 23.5,64.5 Z"/></g>
<g><path style="opacity:0.98" fill="#c00001" d="M 100.5,76.5 C 99.4324,75.5655 98.099,75.2322 96.5,75.5C 96.5,74.1667 96.5,72.8333 96.5,71.5C 104.5,71.5 112.5,71.5 120.5,71.5C 120.5,73.1667 120.5,74.8333 120.5,76.5C 116.236,75.8557 113.402,77.5223 112,81.5C 111.667,93.1667 111.333,104.833 111,116.5C 108.163,129.262 100.163,135.595 87,135.5C 77.6862,135.844 70.0195,132.51 64,125.5C 63.3333,123.5 62.6667,121.5 62,119.5C 61.6667,105.5 61.3333,91.5 61,77.5C 58.6194,76.565 56.1194,76.2317 53.5,76.5C 53.5,74.8333 53.5,73.1667 53.5,71.5C 63.8333,71.5 74.1667,71.5 84.5,71.5C 84.5,73.1667 84.5,74.8333 84.5,76.5C 81.2893,76.012 78.456,76.6787 76,78.5C 75.0914,92.5472 75.4248,106.547 77,120.5C 79.882,125.442 84.2154,127.776 90,127.5C 99.1419,127.36 104.142,122.694 105,113.5C 105.667,103.833 105.667,94.1667 105,84.5C 104.77,81.0324 103.27,78.3658 100.5,76.5 Z"/></g>
<g><path style="opacity:0.175" fill="#4a0100" d="M 96.5,71.5 C 96.5,72.8333 96.5,74.1667 96.5,75.5C 98.099,75.2322 99.4324,75.5655 100.5,76.5C 98.8333,76.5 97.1667,76.5 95.5,76.5C 95.2155,74.5853 95.5489,72.9187 96.5,71.5 Z"/></g>
<g><path style="opacity:0.97" fill="#a80203" d="M 158.5,86.5 C 163.672,85.5648 165.839,87.5648 165,92.5C 158.684,95.3564 156.518,93.3564 158.5,86.5 Z"/></g>
<g><path style="opacity:0.983" fill="#b30002" d="M 192.5,124.5 C 193.222,123.449 194.222,122.782 195.5,122.5C 195.239,133.107 190.239,136.44 180.5,132.5C 179.808,131.975 179.308,131.308 179,130.5C 178.5,122.841 178.334,115.174 178.5,107.5C 176.833,107.5 175.167,107.5 173.5,107.5C 173.5,106.167 173.5,104.833 173.5,103.5C 175.903,103.607 177.736,102.607 179,100.5C 180.549,97.6883 181.382,94.6883 181.5,91.5C 182.5,91.5 183.5,91.5 184.5,91.5C 184.5,95.5 184.5,99.5 184.5,103.5C 187.5,103.5 190.5,103.5 193.5,103.5C 193.5,104.833 193.5,106.167 193.5,107.5C 190.5,107.5 187.5,107.5 184.5,107.5C 184.334,114.508 184.5,121.508 185,128.5C 189.077,130.877 191.577,129.544 192.5,124.5 Z"/></g>
<g><path style="opacity:0.968" fill="#bb0001" d="M 138.5,130.5 C 139.816,127.913 140.483,124.913 140.5,121.5C 140.498,118.314 140.165,115.314 139.5,112.5C 136.609,106.822 132.775,106.155 128,110.5C 125.683,116.295 125.016,122.295 126,128.5C 127.049,130.107 128.549,130.773 130.5,130.5C 130.5,131.5 130.5,132.5 130.5,133.5C 125.167,133.5 119.833,133.5 114.5,133.5C 114.5,132.5 114.5,131.5 114.5,130.5C 116.144,130.714 117.644,130.38 119,129.5C 119.667,122.167 119.667,114.833 119,107.5C 117.644,106.62 116.144,106.286 114.5,106.5C 114.5,105.5 114.5,104.5 114.5,103.5C 118.167,103.5 121.833,103.5 125.5,103.5C 125.343,104.873 125.51,106.207 126,107.5C 131.736,102.593 137.736,102.26 144,106.5C 145.231,114.089 145.897,121.756 146,129.5C 147.356,130.38 148.856,130.714 150.5,130.5C 150.5,131.5 150.5,132.5 150.5,133.5C 145.167,133.5 139.833,133.5 134.5,133.5C 134.5,132.5 134.5,131.5 134.5,130.5C 135.833,130.5 137.167,130.5 138.5,130.5 Z"/></g>
<g><path style="opacity:0.96" fill="#b60002" d="M 152.5,103.5 C 156.833,103.5 161.167,103.5 165.5,103.5C 165.334,112.173 165.5,120.84 166,129.5C 167.356,130.38 168.856,130.714 170.5,130.5C 170.5,131.5 170.5,132.5 170.5,133.5C 164.833,133.5 159.167,133.5 153.5,133.5C 153.5,132.5 153.5,131.5 153.5,130.5C 155.467,130.739 157.301,130.406 159,129.5C 159.667,122.5 159.667,115.5 159,108.5C 157.103,106.984 154.936,106.317 152.5,106.5C 152.5,105.5 152.5,104.5 152.5,103.5 Z"/></g>
<g><path style="opacity:0.377" fill="#870000" d="M 139.5,112.5 C 140.165,115.314 140.498,118.314 140.5,121.5C 140.483,124.913 139.816,127.913 138.5,130.5C 139.455,124.591 139.789,118.591 139.5,112.5 Z"/></g>
<g><path style="opacity:0.263" fill="#540100" d="M 195.5,122.5 C 194.222,122.782 193.222,123.449 192.5,124.5C 192.5,123.5 192.5,122.5 192.5,121.5C 193.791,121.263 194.791,121.596 195.5,122.5 Z"/></g>
<g><path style="opacity:0.267" fill="#244408" d="M 10.5,130.5 C 12.0269,130.427 13.0269,131.094 13.5,132.5C 11.9731,132.573 10.9731,131.906 10.5,130.5 Z"/></g>
</svg>
